<?xml version="1.0" encoding="utf-8"?>
<!-- Generator: Adobe Illustrator 24.3.0, SVG Export Plug-In . SVG Version: 6.00 Build 0)  -->
<svg version="1.1" id="Layer_1" xmlns="http://www.w3.org/2000/svg" xmlns:xlink="http://www.w3.org/1999/xlink" x="0px" y="0px"
	 viewBox="0 0 1067.29 404.03" style="enable-background:new 0 0 1067.29 404.03;" xml:space="preserve">
<g>
	<g>
		<path style="fill:#353535;" d="M391.51,313.81h-33.76c-12.92,0-23.06-4.06-30.44-12.18c-7.39-8.11-11.07-20.48-11.07-37.08V139.47
			c0-15.5,3.68-27.58,11.07-36.25c7.38-8.67,17.52-13.01,30.44-13.01h33.76c12.91,0,23.06,4.34,30.44,13.01
			c7.38,8.67,11.07,20.76,11.07,36.25v15.5c0,2.96-0.37,4.89-1.11,5.81c-0.74,0.93-1.85,1.38-3.32,1.38h-4.43
			c-2.96,0-4.43-2.4-4.43-7.2v-15.5c0-10.7-2.31-19.1-6.92-25.18c-4.62-6.09-11.72-9.13-21.31-9.13h-33.76
			c-9.6,0-16.7,3.04-21.31,9.13c-4.62,6.09-6.92,14.49-6.92,25.18V264c0,10.71,2.3,19.19,6.92,25.46
			c4.61,6.28,11.71,9.41,21.31,9.41h33.76c9.59,0,16.69-3.13,21.31-9.41c4.61-6.27,6.92-14.75,6.92-25.46v-50.92h-39.3
			c-2.59,0-3.87-1.84-3.87-5.53v-3.87c0-3.68,1.29-5.53,3.87-5.53h44.83c5.16,0,7.75,2.96,7.75,8.86v57.56
			c0,16.6-3.69,28.97-11.07,37.08C414.57,309.76,404.43,313.81,391.51,313.81z"/>
		<path style="fill:#353535;" d="M571.2,164.1c-7.39-8.67-17.53-13.01-30.44-13.01H519c-12.92,0-23.06,4.34-30.44,13.01
			c-7.39,8.67-11.07,20.76-11.07,36.25v64.2c0,16.6,3.68,28.97,11.07,37.08c7.38,8.12,17.52,12.18,30.44,12.18h21.76
			c12.91,0,23.06-4.06,30.44-12.18c7.38-8.11,11.07-20.48,11.07-37.08v-64.2C582.27,184.86,578.58,172.77,571.2,164.1z M568.99,264
			c0,10.71-2.31,19.19-6.92,25.46c-4.62,6.28-11.72,9.41-21.31,9.41H519c-9.6,0-16.7-3.13-21.31-9.41
			c-4.62-6.27-6.92-14.75-6.92-25.46v-63.65c0-10.7,2.3-19.1,6.92-25.18c4.61-6.09,11.71-9.13,21.31-9.13h21.76
			c9.59,0,16.69,3.04,21.31,9.13c4.61,6.09,6.92,14.49,6.92,25.18V264z"/>
		<path style="fill:#353535;" d="M703.11,229.69h-58.67v78.59c0,3.69-1.48,5.53-4.43,5.53h-4.43c-3.32,0-4.98-1.84-4.98-5.53V96.3
			c0-4.06,1.66-6.09,4.98-6.09h67.52c12.91,0,23.06,4.34,30.44,13.01c7.38,8.67,11.07,20.76,11.07,36.25v40.96
			c0,15.5-3.69,27.59-11.07,36.25C726.17,225.35,716.02,229.69,703.11,229.69z M731.89,139.47c0-10.7-2.4-19.1-7.2-25.18
			c-4.8-6.09-11.99-9.13-21.59-9.13h-58.67v109.03h58.67c19.18,0,28.78-11.43,28.78-34.32V139.47z"/>
		<path style="fill:#353535;" d="M894.06,313.81h-92.43c-3.32,0-4.98-1.84-4.98-5.53V96.3c0-4.06,1.66-6.09,4.98-6.09h3.87
			c3.32,0,4.98,2.03,4.98,6.09v202.02h83.57c2.58,0,3.87,1.66,3.87,4.98v4.98C897.93,311.97,896.63,313.81,894.06,313.81z"/>
		<path style="fill:#353535;" d="M1025.23,313.81h-39.3c-13.66,0-24.17-4.06-31.55-12.18c-7.39-8.11-11.07-20.48-11.07-37.08V139.47
			c0-15.13,3.87-27.12,11.62-35.98c7.75-8.86,18.07-13.28,30.99-13.28h39.3c12.91,0,23.15,4.34,30.72,13.01
			c7.56,8.67,11.35,20.76,11.35,36.25v15.5c0,4.8-1.48,7.2-4.43,7.2h-3.87c-3.32,0-4.98-2.4-4.98-7.2v-15.5
			c0-10.7-2.4-19.1-7.2-25.18c-4.8-6.09-11.99-9.13-21.59-9.13h-39.3c-9.6,0-16.79,3.04-21.59,9.13c-4.8,6.09-7.2,14.49-7.2,25.18
			V264c0,10.71,2.4,19.19,7.2,25.46c4.79,6.28,11.99,9.41,21.59,9.41h39.3c9.59,0,16.79-3.13,21.59-9.41
			c4.79-6.27,7.2-14.75,7.2-25.46v-15.5c0-4.06,1.66-6.09,4.98-6.09h3.87c2.95,0,4.43,2.03,4.43,6.09v16.05
			C1067.29,297.4,1053.27,313.81,1025.23,313.81z"/>
	</g>
	<g>
		<path style="fill:#284B63;" d="M256.83,331.3v-4.55H9.09v-88.13c0-3.7,0.75-7.2,2.1-10.39c2.02-4.78,5.41-8.87,9.67-11.74
			c4.26-2.88,9.37-4.55,14.92-4.55H225.6c3.7,0,7.2,0.75,10.39,2.1c4.78,2.02,8.87,5.41,11.74,9.67c2.88,4.26,4.55,9.37,4.55,14.92
			v92.68H256.83v-4.55V331.3h4.55v-92.68c0-4.93-1-9.64-2.81-13.93c-2.72-6.43-7.25-11.88-12.96-15.74
			c-5.7-3.86-12.61-6.11-20.01-6.11H35.78c-4.93,0-9.64,1-13.93,2.81c-6.43,2.72-11.88,7.25-15.74,12.96
			C2.26,224.32,0,231.22,0,238.62v97.22h261.37v-4.55H256.83z"/>
		<path style="fill:#284B63;" d="M219.39,399.48v-4.55H41.98c-2.15,0-4.18-0.43-6.04-1.22c-2.78-1.17-5.15-3.15-6.83-5.62
			c-1.67-2.48-2.64-5.44-2.65-8.67v-43.58H234.9l0,43.58c0,2.15-0.43,4.18-1.22,6.04c-1.17,2.78-3.15,5.15-5.62,6.83
			c-2.48,1.67-5.44,2.64-8.67,2.65V399.48v4.55c3.38,0,6.63-0.69,9.58-1.94c4.42-1.87,8.17-4.98,10.82-8.91
			c2.65-3.92,4.21-8.68,4.2-13.76v-52.68H17.38v52.68c0,3.38,0.69,6.63,1.94,9.58c1.87,4.42,4.98,8.17,8.91,10.82
			c3.92,2.65,8.68,4.21,13.76,4.2h177.41V399.48z"/>
		<polygon style="fill:#284B63;" points="108.61,304.56 108.61,300.01 42.73,300.01 42.73,238.67 104.07,238.67 104.07,304.56 
			108.61,304.56 108.61,300.01 108.61,304.56 113.16,304.56 113.16,229.58 33.64,229.58 33.64,309.1 113.16,309.1 113.16,304.56 		
			"/>
		<polygon style="fill:#284B63;" points="170.57,261.51 170.57,256.96 147.73,256.96 147.73,238.67 166.02,238.67 166.02,261.51 
			170.57,261.51 170.57,256.96 170.57,261.51 175.11,261.51 175.11,229.58 138.64,229.58 138.64,266.05 175.11,266.05 
			175.11,261.51 		"/>
		<polygon style="fill:#284B63;" points="224.31,261.51 224.31,256.96 201.48,256.96 201.48,238.67 219.77,238.67 219.77,261.51 
			224.31,261.51 224.31,256.96 224.31,261.51 228.86,261.51 228.86,229.58 192.39,229.58 192.39,266.05 228.86,266.05 
			228.86,261.51 		"/>
		<polygon style="fill:#284B63;" points="170.57,304.56 170.57,300.01 147.73,300.01 147.73,281.72 166.02,281.72 166.02,304.56 
			170.57,304.56 170.57,300.01 170.57,304.56 175.11,304.56 175.11,272.63 138.64,272.63 138.64,309.1 175.11,309.1 175.11,304.56 
					"/>
		<polygon style="fill:#284B63;" points="224.31,304.56 224.31,300.01 201.48,300.01 201.48,281.72 219.77,281.72 219.77,304.56 
			224.31,304.56 224.31,300.01 224.31,304.56 228.86,304.56 228.86,272.63 192.39,272.63 192.39,309.1 228.86,309.1 228.86,304.56 
					"/>
		<polyline style="fill:#284B63;" points="50.86,331.3 50.86,355.23 59.95,355.23 59.95,331.3 		"/>
		<path style="fill:#284B63;" d="M67.17,362.18c0,6.5-5.27,11.76-11.77,11.76s-11.77-5.27-11.77-11.76c0-6.5,5.27-11.77,11.77-11.77
			S67.17,355.68,67.17,362.18z"/>
		<polyline style="fill:#284B63;" points="101.05,331.3 101.05,355.23 110.14,355.23 110.14,331.3 		"/>
		<path style="fill:#284B63;" d="M117.36,362.18c0,6.5-5.27,11.76-11.77,11.76s-11.76-5.27-11.76-11.76
			c0-6.5,5.27-11.77,11.76-11.77S117.36,355.68,117.36,362.18z"/>
		<polyline style="fill:#284B63;" points="151.24,331.3 151.24,355.23 160.33,355.23 160.33,331.3 		"/>
		<path style="fill:#284B63;" d="M167.55,362.18c0,6.5-5.27,11.76-11.77,11.76s-11.77-5.27-11.77-11.76
			c0-6.5,5.27-11.77,11.77-11.77S167.55,355.68,167.55,362.18z"/>
		<polyline style="fill:#284B63;" points="201.43,331.3 201.43,355.23 210.52,355.23 210.52,331.3 		"/>
		<path style="fill:#284B63;" d="M217.74,362.18c0,6.5-5.27,11.76-11.77,11.76s-11.77-5.27-11.77-11.76
			c0-6.5,5.27-11.77,11.77-11.77S217.74,355.68,217.74,362.18z"/>
		<path style="fill:#284B63;" d="M72.77,45.93c-2.56,0-4.97-0.52-7.17-1.45c-3.3-1.39-6.12-3.74-8.11-6.68
			c-1.99-2.95-3.14-6.47-3.14-10.3c0-2.56,0.52-4.97,1.45-7.17c1.39-3.3,3.74-6.12,6.68-8.11c2.95-1.99,6.46-3.14,10.3-3.14
			c2.56,0,4.97,0.52,7.17,1.45c3.3,1.39,6.12,3.74,8.11,6.68c1.99,2.95,3.14,6.47,3.14,10.3h9.09c0-3.79-0.77-7.42-2.16-10.71
			c-2.09-4.94-5.57-9.13-9.96-12.1C83.77,1.74,78.45,0,72.77,0c-3.79,0-7.42,0.77-10.71,2.16c-4.94,2.09-9.13,5.57-12.1,9.96
			c-2.97,4.39-4.7,9.7-4.7,15.39c0,3.79,0.77,7.42,2.16,10.71c2.09,4.94,5.57,9.13,9.96,12.1c4.39,2.97,9.7,4.7,15.39,4.7V45.93
			L72.77,45.93z"/>
		<g>
			<path style="fill:#284B63;" d="M58.67,45.64l-36.9,160.73l8.86,2.03L67.05,49.76C63.96,48.97,61.12,47.54,58.67,45.64z"/>
			<path style="fill:#284B63;" d="M239.6,206.37L202.7,45.64c-2.45,1.91-5.29,3.33-8.38,4.12l36.42,158.64L239.6,206.37
				L239.6,206.37z"/>
			<path style="fill:#284B63;" d="M169.92,14.16c-4.91-1.61-10.24-3.14-15.8-4.38c-7.58-1.69-15.57-2.83-23.43-2.83
				c-7.86,0-15.85,1.15-23.43,2.83c-5.56,1.24-10.9,2.77-15.8,4.38c1.76,2.47,3.05,5.29,3.73,8.35c4.47-1.44,9.28-2.8,14.21-3.89
				c7.06-1.56,14.37-2.58,21.29-2.58c6.98,0,14.35,1.03,21.46,2.62c4.88,1.09,9.63,2.43,14.05,3.85
				C166.87,19.46,168.16,16.63,169.92,14.16z"/>
		</g>
		<path style="fill:#284B63;" d="M188.61,55.02c3.79,0,7.42-0.77,10.71-2.16c4.94-2.09,9.13-5.57,12.1-9.96
			c2.97-4.39,4.7-9.7,4.7-15.39c0-3.79-0.77-7.42-2.16-10.71c-2.09-4.94-5.57-9.13-9.96-12.1c-4.39-2.97-9.7-4.7-15.39-4.7
			c-3.79,0-7.42,0.77-10.71,2.16c-4.94,2.09-9.13,5.57-12.1,9.96c-2.97,4.39-4.7,9.7-4.7,15.39h9.09c0-2.56,0.52-4.97,1.45-7.17
			c1.39-3.3,3.74-6.12,6.68-8.11c2.95-1.99,6.47-3.14,10.3-3.14c2.56,0,4.97,0.52,7.17,1.45c3.3,1.39,6.12,3.74,8.11,6.68
			c1.99,2.95,3.14,6.47,3.14,10.3c0,2.56-0.52,4.97-1.45,7.17c-1.39,3.3-3.74,6.12-6.68,8.11c-2.95,1.99-6.46,3.14-10.3,3.14V55.02
			L188.61,55.02z"/>
		<path style="fill:#284B63;" d="M151.74,96.53c0,7.13-11.91,23.4-26.61,23.4s-26.61-16.26-26.61-23.4
			c0-7.13,11.91-12.91,26.61-12.91S151.74,89.4,151.74,96.53z"/>
		<path style="fill:#284B63;" d="M121.4,114.18c0,0.35-0.08,1.02-0.34,1.85c-0.44,1.46-1.37,3.41-2.79,5.46
			c-2.13,3.09-5.32,6.41-9.39,9.16c-4.07,2.75-9.01,4.95-14.72,5.93c-0.51,0.09-1,0.13-1.46,0.13c-1.1,0-2.09-0.22-3.09-0.62
			c-0.87-0.36-1.74-0.88-2.61-1.55c-1.51-1.17-2.97-2.82-4.26-4.66c-1.93-2.76-3.46-5.93-4.46-8.37c-0.5-1.22-0.87-2.26-1.12-2.98
			c-0.12-0.36-0.21-0.64-0.27-0.82c-0.03-0.09-0.05-0.16-0.06-0.2l-0.01-0.04l-0.19,0.06l0.19-0.05l0,0l-0.19,0.06l0.19-0.05
			l-8.74,2.51c0.03,0.1,0.47,1.63,1.36,3.91c0.67,1.71,1.58,3.84,2.77,6.1c0.89,1.7,1.94,3.48,3.17,5.23
			c1.85,2.61,4.1,5.16,6.95,7.16c1.43,1,3.01,1.85,4.74,2.45c1.74,0.6,3.63,0.95,5.6,0.95c0.98,0,1.98-0.08,2.99-0.26
			c5.4-0.93,10.26-2.73,14.5-5.05c6.35-3.48,11.29-8.07,14.73-12.68c1.72-2.31,3.07-4.63,4.02-6.89c0.48-1.13,0.85-2.25,1.12-3.37
			c0.27-1.12,0.42-2.23,0.42-3.37H121.4L121.4,114.18z"/>
		<path style="fill:#284B63;" d="M121.4,114.18c0,1.52,0.28,2.99,0.73,4.49c0.8,2.61,2.15,5.28,4.01,7.99
			c2.79,4.04,6.74,8.11,11.78,11.52c5.04,3.41,11.18,6.14,18.28,7.36c1.01,0.17,2.01,0.26,2.99,0.26c2.34,0,4.56-0.49,6.55-1.31
			c1.74-0.72,3.31-1.68,4.72-2.78c2.47-1.92,4.46-4.25,6.13-6.62c2.49-3.56,4.24-7.27,5.42-10.12c1.17-2.85,1.75-4.85,1.78-4.97
			l-8.74-2.51l2.51,0.72l-2.51-0.73l0,0.01l2.51,0.72l-2.51-0.73l-0.02,0.06c-0.09,0.3-0.54,1.77-1.36,3.78
			c-0.61,1.51-1.42,3.31-2.42,5.13c-0.75,1.37-1.6,2.74-2.53,4.01c-1.4,1.91-2.99,3.55-4.59,4.62c-0.81,0.54-1.61,0.95-2.42,1.22
			c-0.81,0.27-1.63,0.41-2.52,0.41c-0.46,0-0.94-0.04-1.46-0.13c-4.36-0.75-8.25-2.2-11.67-4.06c-5.12-2.79-9.14-6.56-11.81-10.13
			c-1.33-1.78-2.32-3.52-2.93-4.99c-0.31-0.73-0.53-1.4-0.66-1.95c-0.13-0.55-0.18-0.99-0.18-1.26H121.4L121.4,114.18z"/>
		<polyline style="fill:#284B63;" points="121.4,114.18 121.4,178.08 130.49,178.08 130.49,114.18 		"/>
		<polygon style="fill:#284B63;" points="146.38,138.41 137.63,173.54 125.94,173.54 114.25,173.54 105.5,138.41 96.68,140.6 
			107.15,182.63 125.94,182.63 144.73,182.63 155.2,140.6 146.38,138.41 		"/>
		<path style="fill:#284B63;" d="M108.69,65.56c0,5.24-4.25,9.49-9.49,9.49c-5.24,0-9.49-4.25-9.49-9.49c0-5.24,4.25-9.49,9.49-9.49
			C104.44,56.07,108.69,60.32,108.69,65.56z"/>
		<path style="fill:#284B63;" d="M152.68,65.56c0,5.24,4.25,9.49,9.49,9.49s9.49-4.25,9.49-9.49c0-5.24-4.25-9.49-9.49-9.49
			S152.68,60.32,152.68,65.56z"/>
	</g>
</g>
<g>
</g>
<g>
</g>
<g>
</g>
<g>
</g>
<g>
</g>
<g>
</g>
<g>
</g>
<g>
</g>
<g>
</g>
<g>
</g>
<g>
</g>
<g>
</g>
<g>
</g>
<g>
</g>
<g>
</g>
</svg>
